<mxfile host="app.diagrams.net" modified="2023-04-03T23:31:13.536Z" agent="Mozilla/5.0 (Windows NT 10.0; Win64; x64) AppleWebKit/537.36 (KHTML, like Gecko) Chrome/111.0.0.0 Safari/537.36" etag="Z9UPLSEogdsXp2lda6ug" version="21.1.4" type="device">
  <diagram name="Page-1" id="oX2TJp57FgPa4ofdeCeX">
    <mxGraphModel dx="882" dy="596" grid="1" gridSize="10" guides="1" tooltips="1" connect="1" arrows="1" fold="1" page="1" pageScale="1" pageWidth="850" pageHeight="1100" math="0" shadow="0">
      <root>
        <mxCell id="0" />
        <mxCell id="1" parent="0" />
        <mxCell id="xocrAfg3U54Y7UnQPd_4-7" style="edgeStyle=orthogonalEdgeStyle;rounded=0;orthogonalLoop=1;jettySize=auto;html=1;exitX=1;exitY=0.5;exitDx=0;exitDy=0;entryX=0;entryY=0.5;entryDx=0;entryDy=0;" edge="1" parent="1" source="xocrAfg3U54Y7UnQPd_4-1" target="xocrAfg3U54Y7UnQPd_4-2">
          <mxGeometry relative="1" as="geometry" />
        </mxCell>
        <mxCell id="xocrAfg3U54Y7UnQPd_4-1" value="User" style="rounded=1;whiteSpace=wrap;html=1;" vertex="1" parent="1">
          <mxGeometry x="80" y="80" width="120" height="60" as="geometry" />
        </mxCell>
        <mxCell id="xocrAfg3U54Y7UnQPd_4-8" style="edgeStyle=orthogonalEdgeStyle;rounded=0;orthogonalLoop=1;jettySize=auto;html=1;exitX=1;exitY=0.5;exitDx=0;exitDy=0;entryX=0;entryY=0.5;entryDx=0;entryDy=0;" edge="1" parent="1" source="xocrAfg3U54Y7UnQPd_4-2" target="xocrAfg3U54Y7UnQPd_4-3">
          <mxGeometry relative="1" as="geometry" />
        </mxCell>
        <mxCell id="xocrAfg3U54Y7UnQPd_4-2" value="Load balancer" style="rounded=1;whiteSpace=wrap;html=1;" vertex="1" parent="1">
          <mxGeometry x="280" y="80" width="120" height="60" as="geometry" />
        </mxCell>
        <mxCell id="xocrAfg3U54Y7UnQPd_4-9" style="edgeStyle=orthogonalEdgeStyle;rounded=0;orthogonalLoop=1;jettySize=auto;html=1;exitX=1;exitY=0.5;exitDx=0;exitDy=0;" edge="1" parent="1" source="xocrAfg3U54Y7UnQPd_4-3" target="xocrAfg3U54Y7UnQPd_4-4">
          <mxGeometry relative="1" as="geometry" />
        </mxCell>
        <mxCell id="xocrAfg3U54Y7UnQPd_4-3" value="Web server" style="rounded=1;whiteSpace=wrap;html=1;" vertex="1" parent="1">
          <mxGeometry x="480" y="80" width="120" height="60" as="geometry" />
        </mxCell>
        <mxCell id="xocrAfg3U54Y7UnQPd_4-10" style="edgeStyle=orthogonalEdgeStyle;rounded=0;orthogonalLoop=1;jettySize=auto;html=1;exitX=0.25;exitY=1;exitDx=0;exitDy=0;entryX=0.5;entryY=0;entryDx=0;entryDy=0;" edge="1" parent="1" source="xocrAfg3U54Y7UnQPd_4-4" target="xocrAfg3U54Y7UnQPd_4-6">
          <mxGeometry relative="1" as="geometry" />
        </mxCell>
        <mxCell id="xocrAfg3U54Y7UnQPd_4-16" style="edgeStyle=orthogonalEdgeStyle;rounded=0;orthogonalLoop=1;jettySize=auto;html=1;exitX=0.75;exitY=1;exitDx=0;exitDy=0;entryX=0.75;entryY=0;entryDx=0;entryDy=0;" edge="1" parent="1" source="xocrAfg3U54Y7UnQPd_4-4" target="xocrAfg3U54Y7UnQPd_4-5">
          <mxGeometry relative="1" as="geometry" />
        </mxCell>
        <mxCell id="xocrAfg3U54Y7UnQPd_4-4" value="App server" style="rounded=1;whiteSpace=wrap;html=1;" vertex="1" parent="1">
          <mxGeometry x="680" y="80" width="120" height="60" as="geometry" />
        </mxCell>
        <mxCell id="xocrAfg3U54Y7UnQPd_4-15" style="edgeStyle=orthogonalEdgeStyle;rounded=0;orthogonalLoop=1;jettySize=auto;html=1;exitX=0.75;exitY=0;exitDx=0;exitDy=0;entryX=0.75;entryY=1;entryDx=0;entryDy=0;" edge="1" parent="1" source="xocrAfg3U54Y7UnQPd_4-5" target="xocrAfg3U54Y7UnQPd_4-4">
          <mxGeometry relative="1" as="geometry" />
        </mxCell>
        <mxCell id="xocrAfg3U54Y7UnQPd_4-5" value="Redis" style="rounded=1;whiteSpace=wrap;html=1;" vertex="1" parent="1">
          <mxGeometry x="680" y="200" width="120" height="60" as="geometry" />
        </mxCell>
        <mxCell id="xocrAfg3U54Y7UnQPd_4-14" style="edgeStyle=orthogonalEdgeStyle;rounded=0;orthogonalLoop=1;jettySize=auto;html=1;exitX=0.5;exitY=0;exitDx=0;exitDy=0;entryX=0.25;entryY=1;entryDx=0;entryDy=0;" edge="1" parent="1" source="xocrAfg3U54Y7UnQPd_4-6" target="xocrAfg3U54Y7UnQPd_4-4">
          <mxGeometry relative="1" as="geometry" />
        </mxCell>
        <mxCell id="xocrAfg3U54Y7UnQPd_4-6" value="NoSQL" style="rounded=1;whiteSpace=wrap;html=1;" vertex="1" parent="1">
          <mxGeometry x="480" y="200" width="120" height="60" as="geometry" />
        </mxCell>
      </root>
    </mxGraphModel>
  </diagram>
</mxfile>
